{"accessors":[{"name":"Octahedron_1_1_positions","componentType":5126,"count":10935,"min":[-2.836869955062866,-7.879393100738525,-3.0175669193267822],"max":[1.9378410577774048,-3.1087241172790527,1.7587130069732666],"type":"VEC3","bufferView":0,"byteOffset":0},{"name":"Octahedron_1_1_normals","componentType":5126,"count":10935,"min":[-0.9384329915046692,-0.9242830276489258,-0.803991973400116],"max":[0.9122670292854309,0.773751974105835,0.9819830060005188],"type":"VEC3","bufferView":0,"byteOffset":131220},{"name":"Octahedron_1_1_texcoords","componentType":5126,"count":10935,"min":[0.00002300000051036477,0.00007699999696342275],"max":[0.9999009966850281,0.9999960064888],"type":"VEC2","bufferView":1,"byteOffset":0},{"name":"Octahedron_1_1_0_indices","componentType":5123,"count":53442,"min":[0],"max":[10934],"type":"SCALAR","bufferView":2,"byteOffset":0}],"asset":{"generator":"obj2gltf","version":"2.0"},"buffers":[{"byteLength":1051516,"uri":"data:application/octet-stream;base64,"}],"bufferViews":[{"name":"bufferView_0","buffer":0,"byteLength":262440,"byteOffset":0,"byteStride":12,"target":34962},{"name":"bufferView_1","buffer":0,"byteLength":87480,"byteOffset":262440,"byteStride":8,"target":34962},{"name":"bufferView_2","buffer":0,"byteLength":106884,"byteOffset":349920,"target":34963},{"buffer":0,"byteOffset":456804,"byteLength":594710}],"images":[{"name":"knightlab_Octahedron_1","mimeType":"image/png","bufferView":3}],"materials":[{"name":"Octahedron_1_mtl","pbrMetallicRoughness":{"baseColorTexture":{"index":0},"baseColorFactor":[1,1,1,1],"metallicFactor":0,"roughnessFactor":1},"emissiveFactor":[0,0,0],"alphaMode":"OPAQUE","doubleSided":false}],"meshes":[{"name":"Octahedron_1_1","primitives":[{"attributes":{"POSITION":0,"NORMAL":1,"TEXCOORD_0":2},"indices":3,"material":0,"mode":4}]}],"nodes":[{"name":"Octahedron_1","mesh":0}],"samplers":[{"magFilter":9729,"minFilter":9986,"wrapS":10497,"wrapT":10497}],"scene":0,"scenes":[{"nodes":[0]}],"textures":[{"name":"knightlab_Octahedron_1","sampler":0,"source":0}]}
